<svg width="180" height="28" viewBox="0 0 180 28" fill="none" xmlns="http://www.w3.org/2000/svg">
<path d="M38.1313 9.03101L24.6131 27.9814H6.33984L9.96535 22.8922H19.8034L29.6779 9.03101H38.1313Z" fill="#E0E0E0"/>
<path d="M31.7915 0H13.5182L0 18.5803H18.2915L31.7915 0Z" fill="#C1470A"/>
<path d="M44.3809 27.9815V9.01257H61.5975V12.6953H48.1703V16.5631H58.974V20.4124H48.1703V24.2247H61.5975V27.963H44.3809V27.9815Z" fill="#E0E0E0"/>
<path d="M71.5623 27.9814L63.291 12.7137H67.536L73.1837 23.2993L78.8679 12.7137H83.1129L74.8234 27.9814H71.5623Z" fill="#E0E0E0"/>
<path d="M86.0471 27.4818C85.5005 27.1301 85.0451 26.686 84.7172 26.1308C84.371 25.5756 84.207 24.9464 84.207 24.2802V16.4335C84.207 15.7673 84.371 15.1566 84.7172 14.5829C85.0633 14.0277 85.5005 13.565 86.0471 13.2319C86.5937 12.8803 87.2131 12.7137 87.869 12.7137H95.7941C96.4682 12.7137 97.0876 12.8803 97.6342 13.2319C98.1807 13.565 98.6362 14.0277 98.9641 14.5829C99.2921 15.1381 99.456 15.7673 99.456 16.4335V24.2802C99.456 24.9464 99.2921 25.5571 98.9641 26.1308C98.6362 26.686 98.1989 27.1486 97.6342 27.4818C97.0876 27.8149 96.4682 27.9999 95.7941 27.9999H87.869C87.2131 27.9999 86.6119 27.8334 86.0471 27.4818ZM88.0512 24.2432H95.6301C95.6665 24.2432 95.703 24.2432 95.7394 24.1876C95.7759 24.1506 95.7941 24.1136 95.7941 24.0766V16.6001C95.7941 16.5631 95.7941 16.526 95.7394 16.489C95.703 16.452 95.6665 16.4335 95.6301 16.4335H88.0512C88.0147 16.4335 87.9783 16.4335 87.9418 16.489C87.9054 16.526 87.8872 16.5631 87.8872 16.6001V24.0766C87.8872 24.1136 87.8872 24.1506 87.9418 24.1876C87.9783 24.2247 88.0147 24.2432 88.0512 24.2432Z" fill="#E0E0E0"/>
<path d="M105.886 27.9814C105.212 27.9814 104.592 27.8149 104.028 27.4633C103.463 27.1116 103.007 26.6675 102.679 26.0938C102.351 25.5201 102.188 24.8909 102.188 24.1877V22.5776H105.922V24.0026C105.922 24.0581 105.922 24.0951 105.959 24.1136C105.977 24.1321 106.013 24.1506 106.05 24.1506H116.908C116.945 24.1506 116.981 24.1506 117.017 24.1136C117.054 24.0951 117.072 24.0396 117.072 24.0026V20.5604C117.072 20.5234 117.072 20.4864 117.017 20.4679C116.981 20.4494 116.945 20.4309 116.908 20.4309H105.886C105.212 20.4309 104.592 20.2643 104.028 19.9127C103.463 19.5796 103.007 19.1169 102.679 18.5247C102.351 17.951 102.188 17.3218 102.188 16.6371V12.8248C102.188 12.1216 102.351 11.4923 102.679 10.9186C103.007 10.345 103.463 9.8823 104.028 9.54918C104.592 9.21607 105.212 9.03101 105.886 9.03101H117.109C117.783 9.03101 118.402 9.19756 118.967 9.54918C119.532 9.9008 119.987 10.345 120.333 10.9186C120.679 11.4923 120.843 12.1216 120.843 12.8248V14.4348H117.054V13.0099C117.054 12.9543 117.054 12.9173 116.999 12.8988C116.963 12.8803 116.926 12.8618 116.89 12.8618H106.032C105.995 12.8618 105.959 12.8618 105.941 12.8988C105.922 12.9173 105.904 12.9728 105.904 13.0099V16.452C105.904 16.489 105.904 16.5261 105.941 16.5446C105.959 16.5631 105.995 16.5816 106.032 16.5816H117.109C117.783 16.5816 118.402 16.7481 118.967 17.0997C119.532 17.4329 119.987 17.8955 120.333 18.4877C120.679 19.0614 120.843 19.6906 120.843 20.3754V24.1877C120.843 24.8909 120.679 25.5201 120.333 26.0938C119.987 26.6675 119.532 27.1301 118.967 27.4633C118.402 27.7964 117.783 27.9814 117.109 27.9814H105.886Z" fill="#E0E0E0"/>
<path d="M125.399 27.4818C124.852 27.1301 124.397 26.686 124.069 26.1308C123.723 25.5756 123.559 24.9464 123.559 24.2802V16.4335C123.559 15.7673 123.723 15.1566 124.069 14.5829C124.415 14.0277 124.852 13.565 125.399 13.2319C125.945 12.8803 126.565 12.7137 127.221 12.7137H135.146C135.82 12.7137 136.439 12.8803 136.986 13.2319C137.532 13.565 137.988 14.0277 138.316 14.5829C138.644 15.1381 138.808 15.7673 138.808 16.4335V24.2802C138.808 24.9464 138.644 25.5571 138.316 26.1308C137.988 26.686 137.55 27.1486 136.986 27.4818C136.439 27.8149 135.82 27.9999 135.146 27.9999H127.221C126.565 27.9999 125.963 27.8334 125.399 27.4818ZM127.403 24.2432H134.982C135.018 24.2432 135.055 24.2432 135.091 24.1876C135.127 24.1506 135.146 24.1136 135.146 24.0766V16.6001C135.146 16.5631 135.146 16.526 135.091 16.489C135.055 16.452 135.018 16.4335 134.982 16.4335H127.403C127.366 16.4335 127.33 16.4335 127.293 16.489C127.257 16.526 127.239 16.5631 127.239 16.6001V24.0766C127.239 24.1136 127.239 24.1506 127.293 24.1876C127.33 24.2247 127.366 24.2432 127.403 24.2432Z" fill="#E0E0E0"/>
<path d="M164.077 14.5829C163.749 14.0277 163.312 13.565 162.747 13.2319C162.201 12.8803 161.581 12.7137 160.907 12.7137H149.32V16.452H160.725C160.762 16.452 160.798 16.452 160.834 16.5075C160.871 16.5445 160.889 16.5816 160.889 16.6186V18.4692H152.144C150.577 18.4692 149.32 19.7461 149.32 21.3377V24.2802C149.32 24.9464 149.484 25.5571 149.812 26.1308C150.14 26.686 150.577 27.1486 151.142 27.4818C151.707 27.8334 152.308 27.9999 152.964 27.9999H164.551V16.4335C164.551 15.7673 164.387 15.1566 164.059 14.5829H164.077ZM160.889 24.7613L153.055 24.7058C153.019 24.6688 153 24.1321 153 24.0951V21.3747H160.889V24.7613Z" fill="#E0E0E0"/>
<path d="M167.994 27.9816V16.4152C167.994 15.749 168.158 15.1383 168.504 14.5646C168.85 14.0094 169.288 13.5467 169.852 13.2136C170.417 12.862 171.018 12.6954 171.674 12.6954H180V16.4337H171.838C171.802 16.4337 171.765 16.4337 171.729 16.4892C171.693 16.5262 171.674 16.5632 171.674 16.6003V27.9816H167.994Z" fill="#E0E0E0"/>
<path d="M146.333 9.03101H141.869V27.9999H146.333V9.03101Z" fill="#E0E0E0"/>
</svg>
