<svg width="50" height="50" viewBox="0 0 50 50" fill="none" xmlns="http://www.w3.org/2000/svg">
<path d="M16.9873 37.1797H19.4717V33.013H23.6383V30.5286H19.4717V26.362H16.9873V30.5286H12.8206V33.013H16.9873V37.1797ZM27.404 35.6172H37.18V33.1328H27.404V35.6172ZM27.404 30.4088H37.18V27.9245H27.404V30.4088ZM29.3753 22.3318L32.292 19.4151L35.2087 22.3318L36.9555 20.5849L34.0389 17.6042L36.9555 14.6875L35.2087 12.9406L32.292 15.8573L29.3753 12.9406L27.6285 14.6875L30.5451 17.6042L27.6285 20.5849L29.3753 22.3318ZM13.3415 18.8463H23.1175V16.362H13.3415V18.8463ZM11.0581 42.7083C10.0057 42.7083 9.11491 42.3437 8.38574 41.6146C7.65658 40.8854 7.29199 39.9946 7.29199 38.9422V11.0578C7.29199 10.0054 7.65658 9.11457 8.38574 8.38541C9.11491 7.65624 10.0057 7.29166 11.0581 7.29166H38.9425C39.9949 7.29166 40.8857 7.65624 41.6149 8.38541C42.3441 9.11457 42.7087 10.0054 42.7087 11.0578V38.9422C42.7087 39.9946 42.3441 40.8854 41.6149 41.6146C40.8857 42.3437 39.9949 42.7083 38.9425 42.7083H11.0581ZM11.0581 39.5833H38.9425C39.1029 39.5833 39.2498 39.5165 39.3831 39.3828C39.5168 39.2495 39.5837 39.1026 39.5837 38.9422V11.0578C39.5837 10.8974 39.5168 10.7505 39.3831 10.6172C39.2498 10.4835 39.1029 10.4167 38.9425 10.4167H11.0581C10.8977 10.4167 10.7508 10.4835 10.6175 10.6172C10.4838 10.7505 10.417 10.8974 10.417 11.0578V38.9422C10.417 39.1026 10.4838 39.2495 10.6175 39.3828C10.7508 39.5165 10.8977 39.5833 11.0581 39.5833Z" fill="#F7F7F7"/>
</svg>
