<svg width="24" height="24" viewBox="0 0 24 24" fill="none" xmlns="http://www.w3.org/2000/svg">
<path d="M11.5497 11.3652C12.0472 11.3652 12.4726 11.1881 12.8257 10.8338C13.1791 10.4794 13.3558 10.0535 13.3558 9.556C13.3558 9.0585 13.1786 8.63308 12.8242 8.27975C12.4699 7.92658 12.0439 7.75 11.5462 7.75C11.0487 7.75 10.6234 7.92717 10.2703 8.2815C9.91692 8.63583 9.74025 9.06183 9.74025 9.5595C9.74025 10.057 9.91742 10.4823 10.2718 10.8355C10.6261 11.1887 11.0521 11.3652 11.5497 11.3652ZM11.548 19.0135C13.5043 17.2622 15.0014 15.5823 16.0393 13.974C17.0771 12.3657 17.596 10.957 17.596 9.748C17.596 7.925 17.0168 6.42633 15.8585 5.252C14.7002 4.07767 13.2633 3.4905 11.548 3.4905C9.83267 3.4905 8.39583 4.07767 7.2375 5.252C6.07917 6.42633 5.5 7.925 5.5 9.748C5.5 10.957 6.01892 12.3657 7.05675 13.974C8.09458 15.5823 9.59167 17.2622 11.548 19.0135ZM11.548 21.0095C9.03133 18.8288 7.14417 16.7994 5.8865 14.9212C4.62883 13.0429 4 11.3185 4 9.748C4 7.44033 4.74642 5.57208 6.23925 4.14325C7.73225 2.71442 9.50183 2 11.548 2C13.5942 2 15.3637 2.71442 16.8567 4.14325C18.3496 5.57208 19.096 7.44033 19.096 9.748C19.096 11.3185 18.4672 13.0429 17.2095 14.9212C15.9518 16.7994 14.0647 18.8288 11.548 21.0095Z" fill="#F6F6F6"/>
</svg>
