<svg width="24" height="24" viewBox="0 0 24 24" fill="none" xmlns="http://www.w3.org/2000/svg">
<mask id="mask0_47_689" style="mask-type:alpha" maskUnits="userSpaceOnUse" x="0" y="0" width="24" height="24">
<rect width="24" height="24" fill="#D9D9D9"/>
</mask>
<g mask="url(#mask0_47_689)">
<path d="M11.5017 21C10.1877 21 8.95267 20.7507 7.7965 20.252C6.64033 19.7533 5.63467 19.0766 4.7795 18.2218C3.92433 17.3669 3.24725 16.3617 2.74825 15.206C2.24942 14.0503 2 12.8156 2 11.5017C2 10.1877 2.24933 8.95267 2.748 7.7965C3.24667 6.64033 3.92342 5.63467 4.77825 4.7795C5.63308 3.92433 6.63833 3.24725 7.794 2.74825C8.94967 2.24942 10.1844 2 11.4983 2C12.8123 2 14.0473 2.24933 15.2035 2.748C16.3597 3.24667 17.3653 3.92342 18.2205 4.77825C19.0757 5.63308 19.7528 6.63833 20.2518 7.794C20.7506 8.94967 21 10.1844 21 11.4983C21 12.8123 20.7507 14.0473 20.252 15.2035C19.7533 16.3597 19.0766 17.3653 18.2218 18.2205C17.3669 19.0757 16.3617 19.7528 15.206 20.2518C14.0503 20.7506 12.8156 21 11.5017 21ZM11.5 19.5C13.7333 19.5 15.625 18.725 17.175 17.175C18.725 15.625 19.5 13.7333 19.5 11.5C19.5 9.26667 18.725 7.375 17.175 5.825C15.625 4.275 13.7333 3.5 11.5 3.5C9.26667 3.5 7.375 4.275 5.825 5.825C4.275 7.375 3.5 9.26667 3.5 11.5C3.5 13.7333 4.275 15.625 5.825 17.175C7.375 18.725 9.26667 19.5 11.5 19.5Z" fill="#F6F6F6"/>
<path d="M13.6631 10.655H15V12.0312H13.6631V12.7354H15V14.1117H13.6631V16H12.3713V14.1117H11.0345V12.7354H12.3713V12.0312H11.0345V10.655H12.3713C12.3583 10.2472 12.4142 9.83463 12.3039 9.43862C12.0094 8.38064 10.7202 8.04898 9.90317 8.64163C9.48932 8.9418 9.28972 9.42262 9.27703 9.95093H8.00027C7.98349 8.5986 8.75919 7.48158 9.97976 7.12289C11.4955 6.67752 13.1711 7.46318 13.5687 9.14739C13.6856 9.64244 13.6634 10.148 13.6632 10.655H13.6631Z" fill="#F6F6F6"/>
</g>
</svg>
